<?xml version="1.0" encoding="UTF-8"?>
<svg id="Ebene_1" xmlns="http://www.w3.org/2000/svg" xmlns:xlink="http://www.w3.org/1999/xlink" version="1.1" viewBox="0 0 1200 630">
  <!-- Generator: Adobe Illustrator 29.8.5, SVG Export Plug-In . SVG Version: 2.1.1 Build 2)  -->
  <defs>
    <style>
      .st0 {
        fill: none;
        stroke: url(#Unbenannter_Verlauf_63);
        stroke-miterlimit: 10;
        stroke-width: 1.6px;
      }

      .st1, .st2 {
        fill: #fff;
      }

      .st2 {
        filter: url(#drop-shadow-1);
      }

      .st3 {
        fill: #f5f5f5;
      }

      .st4 {
        fill: url(#Unbenannter_Verlauf_56);
      }

      .st5 {
        fill: url(#Neues_Verlaufsfeld_2);
      }
    </style>
    <linearGradient id="Unbenannter_Verlauf_56" data-name="Unbenannter Verlauf 56" x1="596.9" y1="-690.2" x2="596.9" y2="597.3" gradientUnits="userSpaceOnUse">
      <stop offset="0" stop-color="#0091d5"/>
      <stop offset=".2" stop-color="#0087ca"/>
      <stop offset=".4" stop-color="#006fac"/>
      <stop offset=".8" stop-color="#00497d"/>
      <stop offset="1" stop-color="#003666"/>
    </linearGradient>
    <filter id="drop-shadow-1" x="246.6" y="134.6" width="327" height="200" filterUnits="userSpaceOnUse">
      <feOffset dx="0" dy="6.1"/>
      <feGaussianBlur result="blur" stdDeviation="20.5"/>
      <feFlood flood-color="#000" flood-opacity=".4"/>
      <feComposite in2="blur" operator="in"/>
      <feComposite in="SourceGraphic"/>
    </filter>
    <linearGradient id="Neues_Verlaufsfeld_2" data-name="Neues Verlaufsfeld 2" x1="348.9" y1="361.5" x2="860.1" y2="361.5" gradientUnits="userSpaceOnUse">
      <stop offset="0" stop-color="#0091d5"/>
      <stop offset=".3" stop-color="#0079b7"/>
      <stop offset=".9" stop-color="#003c6d"/>
      <stop offset="1" stop-color="#003666"/>
    </linearGradient>
    <linearGradient id="Unbenannter_Verlauf_63" data-name="Unbenannter Verlauf 63" x1="475.1" y1="677.7" x2="724.9" y2="427.8" gradientUnits="userSpaceOnUse">
      <stop offset="0" stop-color="#0091d5"/>
      <stop offset=".3" stop-color="#0079b7"/>
      <stop offset=".9" stop-color="#003c6d"/>
      <stop offset="1" stop-color="#003666"/>
    </linearGradient>
  </defs>
  <rect class="st4" x="-6.3" width="1206.3" height="631.3"/>
  <g>
    <path class="st2" d="M510.7,196.2c-28.3-4.3-51.6,13.7-75.8,26.7-32,18.8-69.2,18.1-96.3-8.4-7.4-7.3-13-15.4-16.8-24h-13.6c18.4,60.7,87.9,93.3,146.8,66.8,25.8-11.5,46.5-32.9,56.8-59.4.3-.9,0-1.6-1-1.8Z"/>
    <path class="st3" d="M516.4,181c.4-.2.6-.7.7-1.3,1.3-6.4,2-13,2.1-19.8.8-38.9-21-76.4-54.9-95.2-81-46-179.6,27.6-158.1,118.6,14.9,65.3,87.5,101.5,148.7,74,25.8-11.5,46.5-32.9,56.8-59.4.3-.9,0-1.6-1-1.8-28.3-4.3-51.6,13.7-75.8,26.7-32,18.8-69.2,18.1-96.3-8.4-22.2-22-27.9-50.2-20.2-80.5,10.3-40.5,48.5-70.7,90.3-71.3,60-2.2,107.7,53.5,97.3,111.9-.4,1.6.2,2.9,1.8,3.3,2.4.8,4.7,1.8,7,2.9.5.2,1,.4,1.5.3h0Z"/>
    <path class="st3" d="M357.9,164.5h33.1c.7,0,1.2.6,1.2,1.2v31.3c0,.8.7,1.4,1.4,1.2,7-1.1,14.1-3,21-5.7,4.9-1.9,9.8-4,14.8-6,.5-.2.8-.6.8-1.2v-19.7c0-.7.6-1.2,1.2-1.2h33.1c.7,0,1.2-.6,1.2-1.2v-35.5c0-.7-.6-1.2-1.2-1.2h-33.1c-.7,0-1.2-.6-1.2-1.2v-33.1c0-.7-.6-1.2-1.2-1.2h-35.5c-.7,0-1.2.6-1.2,1.2v33.1c0,.7-.6,1.2-1.2,1.2h-33.1c-.7,0-1.2.6-1.2,1.2v35.5c0,.7.6,1.2,1.2,1.2Z"/>
    <path class="st3" d="M390.2,229.6c9.9,0,20.2-2.2,30.6-6.8,32.7-15.1,50.2-33.4,81.6-33.4s7.2.2,11,.7c1.4.2,2-1.7.8-2.3-9.1-5-18.6-7-28.4-7-23.3,0-47.9,11.4-71,20.5-11.2,4.4-22.8,6.7-34,6.7-20.4,0-39.3-7.6-52.3-23.8-.9-1.1-2.7,0-2.1,1.3,11.2,26.5,35.6,44.2,63.9,44.2Z"/>
    <g>
      <g>
        <path class="st3" d="M641.4,94l-33.5,81.5h-20.1l-33.5-81.5h21.1l10.9,27.7,11.5,31.7,11.8-31.7,10.8-27.7h21.1Z"/>
        <path class="st3" d="M645.7,102.3c0-5.8,4.4-10,10.7-10s10.7,4.2,10.7,10-4.4,9.9-10.7,9.9-10.7-4.1-10.7-9.9ZM647.2,117.9h18.3v57.5h-18.3v-57.5Z"/>
        <path class="st3" d="M771,94v81.5h-19v-51l-24,29.3h-3.7l-24.2-29.5v51.1h-19v-81.5h17.1l27.8,34.7,27.8-34.7h17.1Z"/>
        <path class="st3" d="M782.1,146.7c0-17.9,12.2-30,31.5-30s31.7,12.1,31.7,30-12.2,30-31.7,30-31.5-12.1-31.5-30ZM827.1,146.7c0-8.4-5.4-14.6-13.5-14.6s-13.4,6.2-13.4,14.6,5.4,14.6,13.4,14.6,13.5-6.2,13.5-14.6Z"/>
      </g>
      <g>
        <path class="st3" d="M576.3,224.3l-13.2-13.7v13.7h-5.2v-30.6h5.2v13.1l12.2-13.1h6.6l-14,14.8,15.3,15.8h-6.9Z"/>
        <path class="st3" d="M602.1,204.2l-2.2,4c-1.2-.8-2.3-1.2-3.6-1.2-3.5,0-5.7,2.6-5.7,6.8v10.5h-4.9v-21.6h4.4v3.3c1.7-2.6,3.9-3.8,6.6-3.8s4.1.7,5.5,1.9Z"/>
        <path class="st3" d="M626,202.7v21.6h-4.4v-2.9c-1.7,2.1-4.6,3.4-7.9,3.4-6.3,0-10.7-4.6-10.7-11.3s4.4-11.3,10.7-11.3,6.2,1.3,7.9,3.4v-2.9h4.4ZM621.1,213.5c0-4-2.7-6.8-6.6-6.8s-6.6,2.8-6.6,6.8,2.7,6.8,6.6,6.8,6.6-2.8,6.6-6.8Z"/>
        <path class="st3" d="M653,212.4v11.9h-4.9v-11.6c0-3.8-2-6-5.2-6s-6.1,2.6-6.1,6.2v11.4h-4.9v-21.6h4.4v2.8c1.9-2.2,4.5-3.3,7.5-3.3,5.5,0,9.2,3.9,9.2,10.1Z"/>
        <path class="st3" d="M672.1,224.3l-8.6-9.5v9.5h-4.9v-30.6h4.9v18.1l7.7-9.1h6l-9,10.4,10.4,11.2h-6.4Z"/>
        <path class="st3" d="M701.1,215.3h-17.3c.4,3.1,3,5.2,6.8,5.2s4.9-.9,6.2-2.2l3,2.9c-2.1,2.3-5.6,3.8-9.3,3.8-7.1,0-11.7-4.5-11.7-11.4s4.5-11.2,11.2-11.2,11.8,5,11.1,13.1ZM683.9,211.5h12.5c-.3-3.1-2.7-5-6.3-5s-5.6,1.8-6.2,5Z"/>
        <path class="st3" d="M726.7,212.4v11.9h-4.9v-11.6c0-3.8-2-6-5.2-6s-6.1,2.6-6.1,6.2v11.4h-4.9v-21.6h4.4v2.8c1.9-2.2,4.5-3.3,7.5-3.3,5.5,0,9.2,3.9,9.2,10.1Z"/>
        <path class="st3" d="M739.2,201.4v1.3h6.4v4.2h-6.4v17.4h-4.9v-17.4h-4.1v-4.2h4.1v-1.3c0-5.5,3.5-8.3,7.9-8.3s3.7.6,5.5,1.8l-1.9,3.5c-1.2-.7-2.1-1.1-3.2-1.1-2,0-3.4,1.2-3.4,4.1Z"/>
        <path class="st3" d="M770.5,202.7v21.6h-4.4v-2.9c-1.7,2.1-4.6,3.4-7.9,3.4-6.3,0-10.7-4.6-10.7-11.3s4.4-11.3,10.7-11.3,6.2,1.3,7.9,3.4v-2.9h4.4ZM765.6,213.5c0-4-2.7-6.8-6.6-6.8s-6.6,2.8-6.6,6.8,2.7,6.8,6.6,6.8,6.6-2.8,6.6-6.8Z"/>
        <path class="st3" d="M797.5,212.4v11.9h-4.9v-11.6c0-3.8-2-6-5.2-6s-6.1,2.6-6.1,6.2v11.4h-4.9v-30.6h4.9v11.5c1.7-2,4.1-3,7-3,5.6,0,9.2,4,9.2,10.1Z"/>
        <path class="st3" d="M819.5,204.2l-2.2,4c-1.2-.8-2.3-1.2-3.6-1.2-3.5,0-5.7,2.6-5.7,6.8v10.5h-4.9v-21.6h4.4v3.3c1.7-2.6,3.9-3.8,6.6-3.8s4.1.7,5.5,1.9Z"/>
        <path class="st3" d="M836.7,223.6c-1.7.7-3.1,1-4.8,1-4.5,0-7.1-2.6-7.1-7.7v-10h-4.1v-4.1h4.1v-5.6l4.8-.5v6.2h6.2v4.1h-6.2v10c0,2.2,1,3.4,3,3.4s1.9-.3,2.7-.7l1.4,3.9Z"/>
        <path class="st3" d="M861.2,215.3h-17.3c.4,3.1,3,5.2,6.8,5.2s4.9-.9,6.2-2.2l3,2.9c-2.1,2.3-5.6,3.8-9.3,3.8-7.1,0-11.7-4.5-11.7-11.4s4.5-11.2,11.2-11.2,11.8,5,11.1,13.1ZM844,211.5h12.5c-.3-3.1-2.7-5-6.3-5s-5.6,1.8-6.2,5Z"/>
        <path class="st3" d="M886.8,212.4v11.9h-4.9v-11.6c0-3.8-2-6-5.2-6s-6.1,2.6-6.1,6.2v11.4h-4.9v-21.6h4.4v2.8c1.9-2.2,4.5-3.3,7.5-3.3,5.5,0,9.2,3.9,9.2,10.1Z"/>
      </g>
    </g>
    <g>
      <g>
        <path class="st3" d="M386.8,295.6c1.1,1,.5,2.7,0,3.9-1.1,3.2-3,6.5-4.4,9.6-2.1,4.7-4.1,9.5-5.2,14.5,2.4-2.4,4.3-5.1,6.7-7.5s4.8-4.8,7.6-4.1c3.3.9.6,6.4,0,8.5-.4,1.4-1.4,4.1-1.3,5.5,0,1.7,1.1,2.2,2.6,1.6,1.7-.6,3.1-2,4.6-2.9.8-5.8,6.5-11.9,12.1-13.5,6.7-1.8,10.1,3.7,5.5,8.9-2.8,3.2-7.6,4.6-11.7,4.3-1.1,6,5.7,4.2,9,2.7.7-.3,1.4-.8,2.1-1.2s1.8-1.4,2.3-1.6.3,0,.4,0c0,2.7-3,5.3-5.2,6.5-4.8,2.7-13.2,3-14.5-3.8,0-.1,0-1.1-.2-.8-.2,1.1-1.2,2.3-2,3.1-1.9,2-5,3.4-7.7,2.2-3.4-1.5-2.9-5.4-2.2-8.3l1.7-5.5c-.4.3-.8.7-1.1,1.1-2.9,3.4-5.4,7.2-8.3,10.6-1.1,1.3-2.9,4-4.8,2.7s-1.1-5.3-.7-7.2c1.1-5.4,3.3-11.3,5.4-16.3,1.4-3.3,3-7.2,4.7-10.3.8-1.4,2.7-4.5,4.6-2.6ZM404.7,320.8c2.3,0,6-1.7,7-3.9s.3-2-1.1-1.6c-1.5.5-3.6,2.3-4.6,3.4-.2.2-1.5,1.9-1.3,2.1Z"/>
        <path class="st3" d="M335.5,294.1c2.3,0,6.5.8,6.2,3.9-.2,2.5-3.9,6.1-6.4,6.4-1.8.2-1.3-.6-.6-1.6.6-.8,2.5-2.8,2.4-3.8,0-1.1-2.6-.7-3.3-.5-3,.7-9.4,4.1-8.9,7.8s5.2,6.6,6.9,8.6c7.5,9.1-3.9,17.2-12,19.5-4.1,1.1-11.9,1.8-14.6-2.2-3.1-4.6,2.6-9.3,6.6-10.5s2.1-.6,2.9,0c0,.2-1.8,1.5-2.2,1.8-1.6,1.3-3.9,3.7-2.7,6,1.4,2.4,6.4,1.5,8.5.8,4.2-1.3,12.3-6.4,8.9-11.7-2.8-4.4-10.3-7.9-8.4-14.3,1.8-6,10.6-10.1,16.5-10.2Z"/>
        <path class="st3" d="M353.3,331.2c-1.1-.8-2.2-2.8-2.3-4.1-.7-6.6,8.6-14.9,14.9-15.4,2.2-.1,5.2.5,4.5,3.4-.3,1.2-2.4,2.8-3.6,2.2s-.4-1.8-2.3-1c-2.9,1.1-7.7,6.3-7.8,9.5,0,2.4,2.8,2.5,4.5,2.2,3.3-.5,6.3-2.3,9.1-3.9.4,0,0,1.1-.2,1.3-2.2,5.2-12,9.1-16.9,5.7Z"/>
        <path class="st3" d="M426.4,318.3l.8-.7c2.3-2.7,6.9-7.5,10.7-5.4,1.5.8,2,2.7.4,3.6-1.7-.2-3-.1-4.6.6-4,1.8-7.9,7-9.7,10.9-.5,1.1-1.4,4.2-2.3,4.8-1,.7-2.8-.3-3.3-1.3-1-1.9.4-5.7,1-7.8s2.1-7.3,3.4-9.8c.8-1.6,2.6-2.6,4.2-1.4,2.2,1.6,0,4.5-.7,6.4Z"/>
        <path class="st3" d="M350.1,326c.2,3.3-3.8,6.2-6.8,6.4-6.7.5-4.6-8.4-3.4-12.2.9-2.6,3.9-9.9,7.6-8s.3,3.2-.3,4.5c-1.2,2.5-3.7,7.7-3.5,10.4,0,.5.3,1.1.8,1.2s2.2-.5,2.8-.8,1.7-1.3,2.3-1.5.3,0,.5,0Z"/>
        <path class="st3" d="M439.5,326.3c4.6-.3,3.5,6.4-1.1,5.9-3.5-.4-2.7-5.7,1.1-5.9Z"/>
        <path class="st3" d="M350.2,301.8c1.8-.1,2.8,1.5,2,3.1-.8,1.7-4.2,3.7-5.6,1.8-1.5-2,1.6-4.8,3.6-4.9Z"/>
      </g>
      <g>
        <path class="st3" d="M472.3,318c2.3-.5,4.6-1.8,6.5-3.2,3.1-2.2,8.3-7.1,5-11.1-3.7-4.5-13.9-.6-18.1,1.7-2.8,1.5-4.9,3.5-7.5,5.2-2.2,1.4-2.7-.7-2.1-2.6,1.7-4.5,9.5-8.3,13.9-9.5,6-1.6,17.4-2.2,19.4,5.5,2.2,8.3-8.8,16.4-16,17.6-.9.1-1.8.2-2.6.3l-3.1,10.1c-.5,1.5-2.7,3.1-4.3,2s-.7-2.8-.4-4c.7-3.1,1.9-6.2,2.9-9.3-.4-.6-1.7-1.6-1.4-2.4.1-.4,2.2-.2,2.5-.6l3.5-10.8c1.2-4.1,6.8-2.1,5.3,1.7l-3.7,9.2Z"/>
        <path class="st3" d="M619.4,323.7c.4-.4.7-1,1.1-1.5,2.1-2.6,6.6-8.5,9.7-9.5,2-.7,3.9,0,3.8,2.4-.1,3.3-2.7,7.4-3,11-.2,3.3,2.3,2.5,4.2,1.3.3-.2,1.2-.9,1.4-1,.8-.1.1,1.5,0,1.8-1.6,2.9-5.9,5.7-9,3.3-3.1-2.4-.4-9.8.5-13,0,0,.3-.6,0-.5-3.6,3.8-6.1,8.4-9.3,12.5-.9,1.2-2.3,3.1-3.9,1.6-1.8-1.8-.4-7.3.1-9.6,1.4-6,3.7-12.3,6.1-18,.8-1.9,3.1-7.4,4.6-8.5s2.6-.4,2.9,1c.5,2.3-2.2,6.9-3.1,9.1-1.9,4.4-3.8,8.8-5.2,13.4-.4,1.3-.9,2.7-1,4.1Z"/>
        <path class="st3" d="M541.8,317c2.8-1.8,5.5-4,8.4-5.5,1.5-.8,3.7-2.1,4.7,0s-1.7,3.5-3.2,4.5c-2.8,1.6-5.8,2.9-8.5,4.7,0,.4,1.5,2.6,1.8,3.1,1.3,1.8,4.7,5.8,6.7,6.6,1,.4,1.8-.1,1.5,1.4s-2.3,3-4,2.4c-3.4-1.2-7-6.3-8.8-9.3s-.2-.8-.4-.3c-.7,2.1-1,4.5-1.7,6.6-.5,1.4-1.2,2.3-2.8,1.6-2.3-1-1.1-5.9-.6-7.8,1.4-6.2,3.7-12.7,6.1-18.7.8-2,3.3-8.6,4.7-9.7,1.1-.9,2.9-.8,3.3.8.3,1.1-.4,2.9-.8,4-1.3,3.2-2.9,6.4-4.2,9.6-.3.7-2.3,5.9-2.1,6.1Z"/>
        <path class="st3" d="M516,323.6c.7-.5,1.1-1.4,1.7-2.1,1.8-2.2,5-6.2,7.5-7.2,1.6-.6,3.7-.9,4.3,1.1.7,2.3-1.7,7.6-2.1,10.3-.5,3.4,1.6,2.7,3.7,1.5.6-.4,1.9-1.5,2.3-1.7s.4-.1.6,0c0,2.3-1.8,4.3-3.7,5.5-4.7,2.9-8.4.9-7.7-4.7.3-2.4,1.2-4.4,1.7-6.6.2-.8-.4-.3-.8,0-2.3,1.9-5,5.9-6.9,8.4-1.1,1.5-3.4,6.1-5.8,3.9-1.6-1.5-.4-5.5,0-7.4.8-3.4,2-7.5,3.1-10.8.4-1.3,2.7-1.3,3.7-.7,1.6,1,.8,3,.4,4.5-.6,2-1.6,4-2.1,6Z"/>
        <path class="st3" d="M499.5,325.4s.1-.1,0-.2h-.3c-2.1,2.8-6.6,8.6-10.4,7.8-.9-.2-1.8-1-2.3-1.9-1.9-4,1.5-12.6,4.2-15.9,1-1.2,2.1-2.2,3.8-1.6,2.8,1,0,3.9-.8,5.4-1.2,2.1-3.4,6.6-3.1,9s.2.6.3.6c.8,0,2.6-1.7,3.1-2.3,2.9-3,5.4-6.5,8.1-9.6.6-.7,2.3-2.7,3.2-3,1.3-.3,2.3.3,2.2,1.7-.1,1.2-1.5,3.8-2,5.2-.6,1.8-1.9,6-1,7.6.8,1.4,2.8.2,3.7-.4.2-.2,1.4-1.3,1.6-1,0,3.7-3.3,6.4-7,5.4-1.7-.5-3.4-2.5-3.4-4.4s0-1.7,0-2.4Z"/>
        <path class="st3" d="M558.2,314.2c-.9-.1-2.3-.9-2.5-1.9-.1-.7.4-.8.9-1,1.4-.4,2.9-.3,4.3-.7.5-1.2,1-2.4,1.5-3.6.6-1.3,1.8-4.3,2.8-5.1,1.3-1,3.2,0,3.4,1.5.3,2.2-1.8,4.7-2.3,6.8,1.9,0,5.8-.6,7.3.6,1.6,1.2-1.2,2-2.1,2.3-2.3.6-4.6.6-6.9,1.1-.9,2-1.6,4.1-2.2,6.2-.5,1.9-1.7,6.2-.1,7.7,1.2,1.2,4.2-.4,5.5-1,.5-.2,2.6-1.7,2.9-1.6s.1,0,.2.2c.3.7-.6,2.1-1.1,2.7-1.7,2-5.2,4.5-7.9,4.7-3.4.2-5.2-2.3-5.4-5.5-.3-4.5,1.7-9.1,3-13.3-.5,0-1,0-1.5,0Z"/>
        <path class="st3" d="M586.6,295c1.1-.2,2,.3,2,1.4.1,2.2-3.2,7.6-4.3,9.8-1.9,3.8-3.7,7.7-5.1,11.8-.8,2.4-2.8,8-2,10.3.8,2.4,4.1-.4,5.4-1h.2c-.5,3.6-5.2,7.2-8.4,5-3.9-2.6-.7-11.9.5-15.6,1.6-4.8,3.8-10,6.2-14.5.8-1.5,3.9-6.8,5.4-7.2Z"/>
        <path class="st3" d="M613.2,324c0,3.1-3.3,5.8-5.8,7.2-4.2,2.2-11.3,2.9-12.3-3.2-1.1-6.6,8.3-16.5,15-16.1,2,.1,3.6,1.8,2.7,3.8s-1.9,2.1-2.9,1.6c-.7-.3-.5-1.3-1.4-1-3.1.8-7.8,6.5-7.9,9.7,0,1.2.6,2.2,1.8,2.3,2.4.3,5.5-1,7.6-2.1,1.2-.7,2.2-1.6,3.4-2.2Z"/>
        <path class="st3" d="M594.6,326c0,3.5-4,7.1-7.4,6.7-5.7-.7-2.9-10-1.6-13.3.8-1.9,3-6.7,5.2-7.1.9-.2,2.1.1,2.5,1.1.3.7,0,1-.2,1.6-1.6,3.7-4.2,7.1-4.6,11.3-.2,2.4.5,2.9,2.7,2,1.3-.5,1.9-1.4,3-2.1s.2-.1.4,0Z"/>
        <path class="st3" d="M641.6,326.4c4.3-.6,3.9,5.5,0,5.9-4,.4-3.8-5.4,0-5.9Z"/>
        <path class="st3" d="M594.7,301.3c.8-.1,1.5,0,2.1.6,2.1,2.3-2.6,6.5-4.8,4.4-1.7-1.7.8-4.7,2.7-5Z"/>
        <path class="st3" d="M500,303.7c1.3,1.4-.4,4.5-2.2,4.7-2.8.3-3.2-2.7-1.5-4.4s2.9-1.2,3.7-.3Z"/>
        <path class="st3" d="M506.5,303.2c.6,0,1.5.3,1.8.8,1.4,2.3-3.3,5.9-4.8,3.9s1.1-4.6,3-4.8Z"/>
      </g>
      <g>
        <path class="st3" d="M886.5,328.8l-3,1.1c-2.1,7.4-6.7,17-15,18.9-5.7,1.3-10.6-2-7.1-7.9s10.8-8.7,16.4-11.3c.6-1.5.8-3.1,1.2-4.7-.3,0-.2,0-.3.2-2.1,2.6-3.4,4.4-6.6,5.7-5.9,2.5-9.5-1.3-8.6-7.3,1.2-7.2,11-17.5,18.9-15,1.4.4,3.2,1.8,1.9,3.3-1,1.2-2,.7-3.3.8-5.4.4-10.6,6.2-11.7,11.2-.8,3.3.8,4,3.4,2.2,3.5-2.4,5.2-6.2,7.3-9.6.8-1.3,2.8-3.3,4.4-2.2,1.6,1.1,1.1,3.2.9,4.8-.4,2.9-1,5.8-1.5,8.7,0,.3,1,.1,1.3.2s1.6.4,1.4.8ZM876.8,333.4c-3.5,1.7-7.9,3.7-10.3,6.9-1.6,2.2-1.6,4.9,1.9,3.7s5.1-3.9,6.5-6.3,2.1-4.2,1.9-4.3Z"/>
        <path class="st3" d="M731.2,323c2.5-1.1,4.8-2.8,7.6-3,2-4,5.7-7.9,10.1-9.2,7-2,10.8,3.5,5.8,8.9-2.7,2.9-7.4,4.6-11.3,4.1-.4,2.2.2,4.2,2.8,4.4,3,.2,6.4-1.3,8.8-2.9.6-.4,1.4-1.2,1.9-1.4s.3.5.3.7c-.3,2.6-4.2,5.7-6.3,6.8-6,3-14,1-13.2-7,.1-1,.5-2,.6-3-1,.5-2,.9-2.9,1.4-2.7,1.4-4.9,3-7.3,4.9-2.2,1.7-6,5.6-8.9,5.4-3.6-.3-3.4-5.2-3.2-7.8.4-4.5,1.9-8.9,1.6-13.4.1-.6,2.3-.8,2.8-.7,3.6.3,2.6,5.5,2.3,7.9-.1.8-.3,1.6-.5,2.5-.4,2-1.4,4.1-1.6,6.1,0,.1,0,.2.1.1.2,0,.9-.5,1.1-.7,3.9-2.8,7.4-7.9,9.2-12.3.5-1.2,1-3.7,1.8-4.6,1.1-1.3,2.8-.5,3,1.1.3,2.7-1.9,6.8-3.2,9.2-.4.8-1,1.6-1.4,2.4ZM751.8,314.9c-.4-.4-1.1,0-1.5,0-1.7.6-3.4,2.3-4.4,3.8s-.9,1.3-.8,1.3c2.4.2,5.7-1.4,6.7-3.7.2-.4.4-1.2.1-1.5Z"/>
        <path class="st3" d="M663.3,330.1c.4,0,.9-.2,1.3-.2,4.3-.4,8.6-.9,12.9-1,1.8,0,4.6-.4,6,.9,1.6,1.5,0,3.1-1.7,3.5-7.4,1-15,.8-22.4,1.4-7.1-.8,0-8.2,2.1-10.7,3.8-4.4,8-8.8,12.2-12.9,3.2-3.2,6.6-6.2,9.6-9.5,0,0,.4,0,.2-.3-1.5.3-3,.5-4.5.7-2.9.3-8.4,1.1-11.1.7-1.4-.2-2.7-1-2.3-2.6.4-2.1,4.1-2.4,5.8-2.7,4.8-.6,11.3-1.1,16.1-.8,1.8.1,3.8.5,3.3,2.8-.5,2.1-5.7,7.5-7.3,9.3-6.2,6.6-12.8,12.7-18.6,19.6l-1.3,1.8Z"/>
        <path class="st3" d="M815.5,327.6c.4.4-1.5,2.5-1.8,2.9-2.8,2.6-7.8,2.2-8.9-1.9-.4-1.3-.2-2.5-.2-3.9-2.3,2.9-5.9,8.3-10.1,7.9-3.5-.3-4.5-3.5-4.3-6.6.5-6.5,8.5-18.8,16.2-15.7,1.2.5,3.1,2,2.7,3.5,0,.3-.5.9-.8.9s-1.6-.9-2.1-1c-3.1-.5-6.8,4-8.3,6.4-.9,1.5-2.5,4.6-2.4,6.4,0,1.1.5,1.2,1.3.7,2.6-1.4,5.9-6,7.7-8.4s2.2-4.1,4.8-3.8,2.1.9,2.2,1.9-.8,3.4-1.1,4.5c-.4,1.7-1,4.7-.1,6.3,1.2,2.3,3.5,0,5.2,0Z"/>
        <path class="st3" d="M702.9,324.6l-3,3.4c-2.3,2.5-7,6.6-10.4,3.7-3.5-3.1-.5-10.8,1.5-14.1,1.3-2.2,4-6.5,7-5.3,1.6.6,1.4,1.8.6,3-2,3.3-5.5,7.2-5.8,11.3-.1,2.3,1.3,1.3,2.4.4,4.3-3.4,7.7-8.2,11.4-12.2,1-1.1,2.9-3.3,4.5-2.1.7.5.5,1.3.2,2-1.2,3.3-5.1,9.4-3.4,12.9.6,1.4,1.9,1.2,3.1.8.8-.3,1.9-1.2,2.5-1.4,1.2-.4.2,2,0,2.4-2,3.4-8,4.3-9.9.4-.3-.5-.8-2.2-.8-2.7v-2.5Z"/>
        <path class="st3" d="M789.5,326.7c.6,2.5-2.1,4.9-4.3,5.7-2.9,1-5.8-.3-6.7-3.2-1.5-5,1.9-14.6,3.7-19.5,1.8-4.8,4.2-10.7,7.3-14.9.7-1,2.3-2.8,3.6-1.7,1.5,1.3,0,4.6-.6,6.1-2.5,5.8-5.4,10.9-7.3,17-.8,2.5-2.7,9-1.8,11.3.8,1.9,2.8.9,4.1.1s1.6-1.3,1.9-1Z"/>
        <path class="st3" d="M831.7,330.4c1-1,2.3-.8,3.5-.9,2.7-.3,6.8-1.6,4.8-5.1-1.8-3.2-6.1-5.8-6-10,.1-4.6,7.3-7.3,11.1-6.4,1.1.3,2.9,1.3,2.5,2.7-.4,1.3-2.5.8-3.5.9-1.3.1-4.1,1.2-4.3,2.6-.2,1.6.9,2.9,1.8,4.1,2.2,2.9,5.6,5.4,4,9.6-1.6,4-9.1,7.4-13.1,5.7-1.3-.6-2-2-.9-3.1Z"/>
        <path class="st3" d="M827.5,307.9c1.5-.1,4.8.4,5,2.2s-.7,1.7-1.5,1.7c-1.3,0-1.8-.4-3.2,0-7.4,2.3.6,8.1,1.9,11.7,2.4,6.3-6.9,12.2-12.3,10.5s-2.7-2.4-.9-3.8c1.5-1.1,2.6-.3,4.3-.5,1.6-.2,3.9-1.7,4-3.5,0-2.9-5.3-6.7-5.6-10.6-.4-4.6,4.2-7.5,8.3-7.8Z"/>
        <path class="st3" d="M766,317.9c2.7-2.7,6.1-7.4,10.6-6.9s2.5.9,2.6,1.9c.2,2.2-1.9,1.7-3.3,2-6.1,1.4-10.8,8.8-13,14.2-.3.8-.7,2.5-1.2,3.1-.6.7-1.9.4-2.5-.2-2.5-2.2-.3-8.5.6-11.3.7-2.4,1.7-6.1,2.8-8.3.7-1.6,1.9-2.5,3.7-1.9,3.3,1.2.6,5.2,0,7.3Z"/>
        <path class="st3" d="M856.8,311.2c1.3-.2,2.9.5,2.8,2,0,1.1-1.7,4-2.3,5.3-.8,1.9-2.6,6.9-1.9,8.8.6,1.6,2.7.7,3.7.1.5-.3,2.4-1.8,2.8-1.8,1.1,0,.1,2-.1,2.5-1.8,3.2-6.9,6.1-10.2,3.4-3.3-2.8-1.2-10.8.3-14.2.8-1.9,2.6-5.8,4.9-6Z"/>
        <path class="st3" d="M893.5,325.8c4.3-.4,4.3,5.9,0,6.4-4.3.4-4.5-5.9,0-6.4Z"/>
        <path class="st3" d="M862.4,301.9c.6.6.7,1.6.4,2.4-.8,1.9-4.1,4.2-5.7,2s3.1-6.9,5.3-4.4Z"/>
        <path class="st3" d="M802.4,301.8c2.8-.4,3.7,2.3,1.9,4.2-1.8,2.1-5,.5-4.1-2.2s1.2-1.8,2.2-2Z"/>
        <path class="st3" d="M810,302.1c.7-.1,1.5,0,2.1.4,2.3,1.7-.4,5.5-3,4.7-2.4-.8-1.3-4.6.9-5Z"/>
      </g>
    </g>
    <path class="st5" d="M348.9,371.2c168.3-26,342.9-26.3,511.2,0,0,.1-2.2,0-5.4-.2-.6,0-1.2,0-1.8-.1-133.8-9.8-268.6-13.7-402.7-5.6-33.5,1.7-68,4.4-101.3,5.9h0Z"/>
  </g>
  <g>
    <g>
      <g>
        <path class="st1" d="M410.1,546.7l-4.7,14.1h-3.4l-1.3-4-2-5.6-2,5.6-1.3,4h-3.4l-4.7-14.1h3.4l1.6,5.2,1.5,5.2,3.6-10.4h2.7l3.6,10.5,1.6-5.3,1.5-5.2h3.4Z"/>
        <path class="st1" d="M434.5,546.7l-4.7,14.1h-3.4l-1.3-4-2-5.6-2,5.6-1.3,4h-3.4l-4.7-14.1h3.4l1.6,5.2,1.5,5.2,3.6-10.4h2.7l3.6,10.5,1.6-5.3,1.5-5.2h3.4Z"/>
        <path class="st1" d="M458.8,546.7l-4.7,14.1h-3.4l-1.3-4-2-5.6-2,5.6-1.3,4h-3.4l-4.7-14.1h3.4l1.6,5.2,1.5,5.2,3.6-10.4h2.7l3.6,10.5,1.6-5.3,1.5-5.2h3.4Z"/>
        <path class="st1" d="M460.2,559.2c0-1.1.8-1.9,2-1.9s2,.8,2,1.9-.8,1.9-2,1.9-2-.8-2-1.9Z"/>
        <path class="st1" d="M480.9,546.7l-6,14.1h-3.4l-6-14.1h3.5l2,4.8,2.3,6,2.3-6,2-4.8h3.4Z"/>
        <path class="st1" d="M483.6,542.7c0-1.2.9-2,2-2s2.1.8,2.1,2-.9,1.9-2.1,1.9-2-.8-2-1.9ZM484,546.7h3.2v14.1h-3.2v-14.1Z"/>
        <path class="st1" d="M514.4,552.6v8.2h-3.2v-8c0-2.3-1-3.5-2.9-3.5s-3.5,1.5-3.5,3.7v7.8h-3.2v-8c0-2.3-1.1-3.5-3-3.5s-3.5,1.5-3.5,3.7v7.8h-3.2v-14.1h2.9v1.7c1.1-1.3,2.4-1.9,4.2-1.9s3.7.9,4.6,2.5c1.1-1.7,2.8-2.5,5-2.5,3.6,0,5.9,2.3,5.9,6.1Z"/>
        <path class="st1" d="M517.8,553.8c0-4.2,2.9-7.4,7.5-7.4s7.5,3.1,7.5,7.4-2.9,7.4-7.5,7.4-7.5-3.1-7.5-7.4ZM529.7,553.8c0-2.5-1.7-4.5-4.3-4.5s-4.3,2-4.3,4.5,1.7,4.5,4.3,4.5,4.3-2,4.3-4.5Z"/>
        <path class="st1" d="M536.4,551.1h10.5v2.8h-10.5v-2.8Z"/>
        <path class="st1" d="M560.3,560.8l-5.6-6.2v6.2h-3.2v-20h3.2v11.8l5.1-5.9h3.9l-5.9,6.8,6.8,7.3h-4.2Z"/>
        <path class="st1" d="M577.7,547.7l-1.4,2.6c-.8-.5-1.5-.8-2.4-.8-2.3,0-3.7,1.7-3.7,4.5v6.9h-3.2v-14.1h2.9v2.2c1.1-1.7,2.5-2.5,4.3-2.5s2.7.5,3.6,1.2Z"/>
        <path class="st1" d="M594,546.7v14.1h-2.9v-1.9c-1.1,1.4-3,2.2-5.2,2.2-4.1,0-7-3-7-7.4s2.9-7.4,7-7.4,4.1.8,5.1,2.2v-1.9h2.9ZM590.8,553.8c0-2.6-1.8-4.5-4.3-4.5s-4.3,1.8-4.3,4.5,1.8,4.5,4.3,4.5,4.3-1.8,4.3-4.5Z"/>
        <path class="st1" d="M612.4,553v7.8h-3.2v-7.6c0-2.5-1.3-3.9-3.4-3.9s-4,1.7-4,4.1v7.4h-3.2v-14.1h2.9v1.9c1.2-1.4,2.9-2.1,4.9-2.1,3.6,0,6,2.6,6,6.6Z"/>
        <path class="st1" d="M625.6,560.8l-5.6-6.2v6.2h-3.2v-20h3.2v11.8l5.1-5.9h3.9l-5.9,6.8,6.8,7.3h-4.2Z"/>
        <path class="st1" d="M645.3,555h-11.3c.3,2.1,2,3.4,4.5,3.4s3.2-.6,4.1-1.5l1.9,1.9c-1.4,1.5-3.7,2.5-6.1,2.5-4.7,0-7.6-2.9-7.6-7.4s2.9-7.3,7.3-7.3,7.7,3.3,7.2,8.5ZM634,552.5h8.2c-.2-2-1.8-3.3-4.1-3.3s-3.7,1.2-4.1,3.3Z"/>
        <path class="st1" d="M662.7,553v7.8h-3.2v-7.6c0-2.5-1.3-3.9-3.4-3.9s-4,1.7-4,4.1v7.4h-3.2v-14.1h2.9v1.9c1.2-1.4,2.9-2.1,4.9-2.1,3.6,0,6,2.6,6,6.6Z"/>
        <path class="st1" d="M671.5,545.9v.9h4.2v2.7h-4.2v11.4h-3.2v-11.4h-2.7v-2.7h2.7v-.9c0-3.6,2.3-5.4,5.2-5.4s2.4.4,3.6,1.2l-1.2,2.3c-.8-.5-1.3-.7-2.1-.7-1.3,0-2.2.8-2.2,2.7Z"/>
        <path class="st1" d="M692.7,546.7v14.1h-2.9v-1.9c-1.1,1.4-3,2.2-5.2,2.2-4.1,0-7-3-7-7.4s2.9-7.4,7-7.4,4.1.8,5.1,2.2v-1.9h2.9ZM689.5,553.8c0-2.6-1.8-4.5-4.3-4.5s-4.3,1.8-4.3,4.5,1.8,4.5,4.3,4.5,4.3-1.8,4.3-4.5Z"/>
        <path class="st1" d="M711.1,553v7.8h-3.2v-7.6c0-2.5-1.3-3.9-3.4-3.9s-4,1.7-4,4.1v7.4h-3.2v-20h3.2v7.5c1.1-1.3,2.7-1.9,4.6-1.9,3.7,0,6,2.6,6,6.6Z"/>
        <path class="st1" d="M726.2,547.7l-1.4,2.6c-.8-.5-1.5-.8-2.4-.8-2.3,0-3.7,1.7-3.7,4.5v6.9h-3.2v-14.1h2.9v2.2c1.1-1.7,2.5-2.5,4.3-2.5s2.7.5,3.6,1.2Z"/>
        <path class="st1" d="M738.1,560.3c-1.1.5-2,.7-3.2.7-2.9,0-4.6-1.7-4.6-5.1v-6.5h-2.7v-2.7h2.7v-3.7l3.2-.3v4h4.1v2.7h-4.1v6.5c0,1.4.7,2.2,2,2.2s1.2-.2,1.8-.4l.9,2.6Z"/>
        <path class="st1" d="M754.9,555h-11.3c.3,2.1,2,3.4,4.5,3.4s3.2-.6,4.1-1.5l1.9,1.9c-1.4,1.5-3.7,2.5-6.1,2.5-4.7,0-7.6-2.9-7.6-7.4s2.9-7.3,7.3-7.3,7.7,3.3,7.2,8.5ZM743.6,552.5h8.2c-.2-2-1.8-3.3-4.1-3.3s-3.7,1.2-4.1,3.3Z"/>
        <path class="st1" d="M772.3,553v7.8h-3.2v-7.6c0-2.5-1.3-3.9-3.4-3.9s-4,1.7-4,4.1v7.4h-3.2v-14.1h2.9v1.9c1.2-1.4,2.9-2.1,4.9-2.1,3.6,0,6,2.6,6,6.6Z"/>
        <path class="st1" d="M776.3,559.2c0-1.1.8-1.9,2-1.9s2,.8,2,1.9-.8,1.9-2,1.9-2-.8-2-1.9Z"/>
        <path class="st1" d="M798.1,540.8v20h-2.9v-1.9c-1.1,1.4-3,2.2-5.2,2.2-4,0-6.9-2.9-6.9-7.4s2.9-7.4,6.9-7.4,3.8.7,4.9,1.8v-7.4h3.2ZM794.9,553.8c0-2.6-1.8-4.5-4.3-4.5s-4.3,1.8-4.3,4.5,1.8,4.5,4.3,4.5,4.3-1.8,4.3-4.5Z"/>
        <path class="st1" d="M816.3,555h-11.3c.3,2.1,2,3.4,4.5,3.4s3.2-.6,4.1-1.5l1.9,1.9c-1.4,1.5-3.7,2.5-6.1,2.5-4.7,0-7.6-2.9-7.6-7.4s2.9-7.3,7.3-7.3,7.7,3.3,7.2,8.5ZM805,552.5h8.2c-.2-2-1.8-3.3-4.1-3.3s-3.7,1.2-4.1,3.3Z"/>
      </g>
      <rect class="st0" x="361.7" y="527.4" width="476.5" height="50.6" rx="25.3" ry="25.3"/>
    </g>
    <g>
      <path class="st1" d="M258.2,475.6h-11.2v11.4h-7.8v-11.4h-11.1v-7.3h11.1v-11.1h7.8v11.1h11.2v7.3Z"/>
      <path class="st1" d="M309.5,487h-5.9v9.9h-8.5v-9.9h-28l-1-7.8,27.7-33h9.7v33h5.9v7.8ZM275.6,479.3h19.5v-23l-19.5,23Z"/>
      <path class="st1" d="M359.6,462.1v18.2c0,10.8-8.5,17.4-20.6,17.4s-20.3-5.5-20.7-14.8h8.5c0,3.9,5.2,6.9,12.1,6.9s12.2-3.5,12.2-9.9v-5.8c-3.7,3-8.1,4.4-13.5,4.4-11.7,0-19.8-6.7-19.8-16.4s8.5-16.7,20.9-16.7,20.9,7,20.9,16.7ZM351.1,462.1c0-5.4-4.9-8.9-12.3-8.9s-12.4,3.5-12.4,8.9,5,8.8,12.4,8.8,12.3-3.5,12.3-8.8Z"/>
      <path class="st1" d="M398.3,489h32.3v7.9h-40.7v-12.7c0-9.6,7.5-15.2,20.5-15.2s11.7-3.1,11.7-7.7-4.1-8-11.2-8-11.9,3-12,7.6h-8.7c.6-9.6,8.3-15.2,20.7-15.2s19.7,5.9,19.7,15.5-7,15.5-20.1,15.5-12.2,2.8-12.2,7.6v4.9Z"/>
      <path class="st1" d="M440.7,476.5v-9.9c0-12.7,8.9-21.4,22-21.4s22,8.6,22,21.4v9.9c0,12.7-8.9,21.3-22,21.3s-22-8.6-22-21.3ZM476.2,476.5v-9.9c0-8-5.4-13.3-13.5-13.3s-13.5,5.4-13.5,13.3v9.9c0,8,5.4,13.3,13.5,13.3s13.5-5.4,13.5-13.3Z"/>
      <path class="st1" d="M520.5,489v7.9h-26.9v-7.9h9.7v-32.8l-8.6,2.8v-7.8l16.1-5.2h1v43.1h8.7Z"/>
      <path class="st1" d="M590,482.7c0,9.2-8.4,15.1-21.2,15.1s-21.3-6-21.3-15.1,3.1-10.1,8-12.2c-4.1-2.2-6.7-5.9-6.7-10.9,0-8.5,8-14.3,20-14.3s19.9,5.8,19.9,14.3-2.6,8.7-6.7,10.9c4.9,2.2,8,6.7,8,12.2ZM581.4,482.2c0-4.9-4.9-8-12.6-8s-12.7,3.1-12.7,8,4.9,8,12.7,8,12.6-3,12.6-8ZM557.2,460.2c0,4.5,4.6,7.6,11.6,7.6s11.6-3.1,11.6-7.6-4.7-7.6-11.6-7.6-11.6,3-11.6,7.6Z"/>
      <path class="st1" d="M640.6,482.3c0,9.3-8.3,15.4-21.1,15.4s-20.6-6-20.6-15.3h8.5c0,4.3,5.4,7.5,12.7,7.5s11.9-2.9,11.9-7.7-4.3-7.6-11.5-7.6h-9v-7h8c7,0,11.5-2.7,11.5-7s-4.6-7.1-11.4-7.1-11.4,2.8-11.4,6.9h-8.4c0-8.9,7.8-14.7,19.9-14.7s19.7,6,19.7,14.8-2.9,9.1-7,10.6c5.1,1.8,8.1,5.9,8.1,11.4Z"/>
      <path class="st1" d="M686,446.2v4.9l-23.5,45.8h-9.7l22.2-42.7h-27.7v-8h38.6Z"/>
      <path class="st1" d="M721.1,489h32.3v7.9h-40.7v-12.7c0-9.6,7.5-15.2,20.5-15.2s11.7-3.1,11.7-7.7-4.1-8-11.2-8-11.9,3-12,7.6h-8.7c.6-9.6,8.3-15.2,20.7-15.2s19.7,5.9,19.7,15.5-7,15.5-20.1,15.5-12.2,2.8-12.2,7.6v4.9Z"/>
      <path class="st1" d="M763.5,476.5v-9.9c0-12.7,8.9-21.4,22-21.4s22,8.6,22,21.4v9.9c0,12.7-8.9,21.3-22,21.3s-22-8.6-22-21.3ZM798.9,476.5v-9.9c0-8-5.4-13.3-13.5-13.3s-13.5,5.4-13.5,13.3v9.9c0,8,5.4,13.3,13.5,13.3s13.5-5.4,13.5-13.3Z"/>
      <path class="st1" d="M859.8,481.1c0,9.8-8.5,16.6-20.9,16.6s-21.1-6.6-21.1-16.7v-18.2c0-10.5,8.3-17.4,20.8-17.4s20.2,5.6,20.4,14.7h-8.4c-.2-4.1-5.1-6.8-11.9-6.8s-12.4,3.8-12.4,9.8v6.1c3.7-3,8.4-4.6,13.6-4.6,11.7,0,19.8,6.7,19.8,16.5ZM851.3,481c0-5.4-4.9-8.9-12.4-8.9s-12.5,3.5-12.5,8.9,4.9,8.8,12.5,8.8,12.4-3.5,12.4-8.8Z"/>
      <path class="st1" d="M924.7,446.2v4.9l-23.5,45.8h-9.7l22.2-42.7h-27.7v-8h38.6Z"/>
      <path class="st1" d="M940,489h32.3v7.9h-40.7v-12.7c0-9.6,7.5-15.2,20.5-15.2s11.7-3.1,11.7-7.7-4.1-8-11.2-8-11.9,3-12,7.6h-8.7c.6-9.6,8.3-15.2,20.7-15.2s19.7,5.9,19.7,15.5-7,15.5-20.1,15.5-12.2,2.8-12.2,7.6v4.9Z"/>
    </g>
  </g>
</svg>