<?xml version="1.0" encoding="UTF-8"?>
<svg width="1200" height="630" viewBox="0 0 1200 630" fill="none" xmlns="http://www.w3.org/2000/svg">
  <defs>
    <linearGradient id="bg" x1="0" y1="0" x2="1" y2="1">
      <stop offset="0%" stop-color="#f8f6f1" />
      <stop offset="55%" stop-color="#f3efe6" />
      <stop offset="100%" stop-color="#f7f5f0" />
    </linearGradient>
    <linearGradient id="accent" x1="0" y1="0" x2="1" y2="0">
      <stop offset="0%" stop-color="#c9971f" stop-opacity="0" />
      <stop offset="50%" stop-color="#c9971f" stop-opacity="0.9" />
      <stop offset="100%" stop-color="#c9971f" stop-opacity="0" />
    </linearGradient>
    <pattern id="grid" width="120" height="120" patternUnits="userSpaceOnUse">
      <path d="M 120 0 L 0 0 0 120" fill="none" stroke="#1a2433" stroke-opacity="0.08" stroke-width="1" />
    </pattern>
    <pattern id="grid-micro" width="30" height="30" patternUnits="userSpaceOnUse">
      <path d="M 30 0 L 0 0 0 30" fill="none" stroke="#1a2433" stroke-opacity="0.05" stroke-width="0.5" />
    </pattern>
  </defs>

  <rect width="1200" height="630" fill="url(#bg)" />
  <rect width="1200" height="630" fill="url(#grid)" />
  <rect width="1200" height="630" fill="url(#grid-micro)" />

  <g opacity="0.7">
    <path d="M 80 380 C 260 330 420 360 620 340 S 1020 320 1120 310" stroke="url(#accent)" stroke-width="3" />
  </g>

  <g fill="#1a2433">
    <text x="90" y="180" font-family="Inter, Arial, sans-serif" font-size="20" letter-spacing="2" opacity="0.55">SAM ENGINEERING &amp; CONSULTING GMBH</text>
    <text x="90" y="270" font-family="Inter, Arial, sans-serif" font-size="56" font-weight="600">Wir machen Projekte</text>
    <text x="90" y="330" font-family="Inter, Arial, sans-serif" font-size="56" font-weight="600">beherrschbar und erfolgreich.</text>
    <text x="90" y="410" font-family="Inter, Arial, sans-serif" font-size="26" opacity="0.7">Projektmanagement &amp; Bauueberwachung fuer Infrastrukturprojekte</text>
  </g>

  <g fill="#1a2433" opacity="0.5">
    <text x="90" y="470" font-family="Courier New, monospace" font-size="14" letter-spacing="3">DE | STRUKTUR | VERANTWORTUNG | QUALITAET</text>
  </g>

  <circle cx="1040" cy="150" r="5" fill="#c9971f" opacity="0.6" />
  <circle cx="1080" cy="210" r="3" fill="#c9971f" opacity="0.5" />
  <circle cx="980" cy="240" r="4" fill="#c9971f" opacity="0.4" />
</svg>
