<?xml version="1.0" encoding="UTF-8"?>
<svg id="Ebene_1" xmlns="http://www.w3.org/2000/svg" version="1.1" viewBox="0 0 512 512">
  <!-- Generator: Adobe Illustrator 29.8.5, SVG Export Plug-In . SVG Version: 2.1.1 Build 2)  -->
  <defs>
    <style>
      .st0 {
        fill: #fff;
      }

      .st1 {
        fill: #003666;
      }
    </style>
  </defs>
  <rect class="st1" width="512" height="512"/>
  <path class="st0" d="M481.4,304c-.9.3-2.1-.1-3-.5-4.6-2.2-9.4-4.3-14.2-6-2.9-.7-5.3-2.9-4.9-6.1,10-54.3-3.7-110.5-35.4-154.6C331.4,5.9,132.2,27.4,67.2,173.1c-71.2,160.3,85.6,313.5,240.6,220.3,51-27.2,101.9-66.3,162.1-56.6,1.4.4,2.2,1.4,2,2.8-18.1,49.4-54.5,90.5-99.4,116.8-95.7,57.8-225.2,32.6-295-52.9C-83.7,204.7,147.7-69.5,371.2,55.1c84.6,47.3,131.9,149.7,112.4,245-.2,1.3-.8,3.5-2,3.9h-.1ZM141.4,268.5c13.8,0,35.2,0,50.3,0,11.2,0,20,0,20.9,0,.6,0,1.7.4,2.3,1.4.2.4.5.9.5,1.4.1,6.7,0,45.2,0,57.4,0,5.2,0,8.8,0,9.5,0,.9.6,2,1.6,2.5.6.3,1.2.3,1.8.2,26.1-3.5,51.2-14.7,75.8-24.7.7-.3,1.3-.7,1.7-1.3.4-.8.5-1.1.6-1.6,0-1.9,0-24.2,0-35.5.3-5.2-1.2-8.5,2.7-9.3.6,0,5.5,0,12.4,0,20.8-.3,56.8.6,59.7-.4,1.9-1.4,1.5-2.2,1.5-4.9,0-12.1,0-27.4,0-40.6,0-8.2,0-32.2,0-33,0-.7-.7-2-1.7-2.4-2.4-.7-13.5-.1-29-.3-9.5,0-21.1,0-30,0-7.2,0-12.3,0-12.9,0-1.2,0-2.6-1.3-2.7-2.4-.2-15,.3-60.6-.2-71.9-.2-1-1.6-2-2.6-2-.8,0-10.2,0-22.1,0-17.4,0-37.6,0-54.1,0-1.2.1-2.6,1.4-2.6,2.8,0,2,0,38.9,0,58.7,0,6.7,0,11.4,0,12.1,0,.7-.4,1.8-1.4,2.3-.6.4-1,.4-1.4.5-.6,0-5.1,0-11.7,0-13,0-52.3,0-59.2,0-.7,0-1.7.5-2.3,1.4,0,0-.1.2-.2.3v.3c-.2.2-.3.6-.3.7,0,.8,0,25.6,0,34.2,0,10.5,0,24.3,0,33.6,0,4.6,0,7.8,0,8.3,0,1.2,1.2,2.6,2.3,2.7h0ZM210.9,408.2c22.3,0,46.2-5.6,67.2-15.4,76.4-36.8,120-80.4,198.2-69.6,1.5-.3,2.4-1.8,2-3.2-.2-.8-.8-1.4-1.4-1.8-3.2-1.9-6.5-3.4-9.8-4.9-16.5-7.2-33.6-10.2-51-10.2-57.8-.6-117.5,33.4-174.7,51.4-46,12.6-97,9.2-136.4-18.8-10.3-6.9-19-16.5-27.8-25.9-2.1-1-4.4,1.3-3.4,3.5,23.8,56.7,76.5,94.8,137,94.8h.2Z"/>
</svg>